<?xml version="1.0" encoding="UTF-8" standalone="no"?>
<!-- Created with Inkscape (http://www.inkscape.org/) -->

<svg
   version="1.1"
   id="svg870"
   width="512"
   height="512"
   viewBox="0 0 512 512"
   sodipodi:docname="favicon.svg"
   inkscape:version="1.2.1 (ef4d3fba62, 2022-07-19, custom)"
   xml:space="preserve"
   xmlns:inkscape="http://www.inkscape.org/namespaces/inkscape"
   xmlns:sodipodi="http://sodipodi.sourceforge.net/DTD/sodipodi-0.dtd"
   xmlns="http://www.w3.org/2000/svg"
   xmlns:svg="http://www.w3.org/2000/svg"><defs
     id="defs874"><inkscape:path-effect
       effect="fill_between_many"
       method="originald"
       linkedpaths="#path539,0,1|"
       id="path-effect563" /></defs><sodipodi:namedview
     id="namedview872"
     pagecolor="#505050"
     bordercolor="#ffffff"
     borderopacity="1"
     inkscape:pageshadow="0"
     inkscape:pageopacity="0"
     inkscape:pagecheckerboard="1"
     showgrid="false"
     inkscape:zoom="1"
     inkscape:cx="275"
     inkscape:cy="234.5"
     inkscape:window-width="1920"
     inkscape:window-height="1004"
     inkscape:window-x="1920"
     inkscape:window-y="26"
     inkscape:window-maximized="1"
     inkscape:current-layer="layer1"
     inkscape:showpageshadow="0"
     inkscape:deskcolor="#505050"><inkscape:grid
       type="xygrid"
       id="grid1239" /></sodipodi:namedview><g
     inkscape:groupmode="layer"
     inkscape:label="Image"
     id="g876"
     style="display:inline"><rect
       style="fill:#9a8c98;fill-opacity:1;stroke:#9a8c98;stroke-width:11.871;stroke-opacity:1"
       id="rect6625"
       width="46.050358"
       height="32.23616"
       x="258.35483"
       y="-74.00193" /><rect
       style="fill:#4a4e69;fill-opacity:1;stroke:#4a4e69;stroke-width:11.871;stroke-opacity:1"
       id="rect6709"
       width="46.050358"
       height="32.23616"
       x="212.30447"
       y="-74.00193" /><rect
       style="fill:#22223b;fill-opacity:1;stroke:#22223b;stroke-width:11.871;stroke-opacity:1"
       id="rect6711"
       width="46.050358"
       height="32.23616"
       x="166.25412"
       y="-74.00193" /><rect
       style="fill:#f2e9e4;fill-opacity:1;stroke:#f2e9e4;stroke-width:11.871;stroke-opacity:1"
       id="rect6713"
       width="46.050358"
       height="32.23616"
       x="304.40518"
       y="-74.00193" /><rect
       style="fill:#22223b;fill-opacity:1;stroke:#22223b;stroke-width:11.871;stroke-opacity:1"
       id="rect6881"
       width="512"
       height="512"
       x="2.5e-13"
       y="0" /></g><g
     inkscape:groupmode="layer"
     id="layer1"
     inkscape:label="stack"
     style="display:inline"><g
       id="g2664"
       transform="translate(10.468619,2.9292083)"><path
         style="display:inline;fill:#9a8c98;fill-opacity:1;stroke:#9a8c98;stroke-width:1px;stroke-linecap:butt;stroke-linejoin:miter;stroke-opacity:1"
         d="m 166.04606,154.64234 c 0,0 -17.668,26.09318 -23.91044,52.46638 -6.24243,26.3732 -13.54415,105.77282 -13.54415,105.77282 l -0.12608,103.69265 c 0,0 7.11365,13.77032 23.37579,20.45005 16.26213,6.67973 74.19704,19.62833 74.19704,19.62833 l 20.13064,-1.95838 159.64694,-147.88665 -1.14449,-21.23549 -213.30318,-149.03468 -18.5304,12.30857 z"
         id="path2636"
         sodipodi:nodetypes="czcczccccccc" /><path
         style="display:inline;fill:#22223b;fill-opacity:1;stroke:#22223b;stroke-width:1px;stroke-linecap:butt;stroke-linejoin:miter;stroke-opacity:1"
         d="m 172.83773,148.84594 c 0,0 19.89287,-1.58881 33.55718,6.49582 13.66432,8.08462 16.19328,26.56303 16.19328,26.56303 0,0 1.37165,28.69995 0.84587,44.35539 -0.52578,15.65543 -4.00056,49.5772 -4.00056,49.5772 0,0 -0.63572,11.30921 11.25116,19.54026 11.88688,8.23105 30.86041,7.55759 30.86041,7.55759 l 141.4509,-15.68743 4.40523,-4.40632 -189.95239,-147.27258 -29.93387,2.28784 c 0,0 -2.91023,1.00157 -7.54043,4.11976 -4.6302,3.11818 -7.13678,6.86944 -7.13678,6.86944 z"
         id="path561"
         sodipodi:nodetypes="czczczccccczc" /><path
         style="display:inline;fill:#4a4e69;fill-opacity:1;stroke:#4a4e69;stroke-width:1px;stroke-linecap:butt;stroke-linejoin:miter;stroke-opacity:1"
         d="m 243.95057,85.623196 c 0,0 13.64623,-4.37415 28.42567,-1.31192 14.77945,3.06223 32.3745,18.729184 32.3745,18.729184 0,0 0.89841,-11.430404 -4.18009,-25.275634 -5.07851,-13.845235 -16.83896,-20.670916 -16.83896,-20.670916 0,0 -14.59247,-6.815809 -22.19718,-7.467606 -7.60471,-0.651797 -16.19364,1.152475 -16.19364,1.152475 0,0 -6.04525,4.516703 -5.88491,17.366667 0.16034,12.84996 4.49461,17.47775 4.49461,17.47775 z"
         id="path559"
         sodipodi:nodetypes="czczczczc" /><path
         style="display:inline;fill:#9a8c98;fill-opacity:1;stroke:#9a8c98;stroke-width:1px;stroke-linecap:butt;stroke-linejoin:miter;stroke-opacity:1"
         d="m 299.91132,132.50678 c 0,0 7.88197,-21.31755 3.53088,-44.620464 -4.35108,-23.302901 -19.71051,-30.792406 -19.71051,-30.792406 0,0 19.91719,8.501352 33.66652,28.639566 13.74933,20.138224 17.42029,45.477074 17.42029,45.477074 z"
         id="path557"
         sodipodi:nodetypes="czczcc" /><path
         style="display:inline;fill:#9a8c98;fill-opacity:1;stroke:#9a8c98;stroke-width:1px;stroke-linecap:butt;stroke-linejoin:miter;stroke-opacity:1"
         d="m 217.44881,135.5689 c 0,0 -3.21301,-9.33573 -4.35454,-14.7292 -1.14153,-5.39346 -2.49466,-17.63159 -2.49466,-17.63159 0,0 6.31649,-27.789884 17.5036,-40.343827 11.18711,-12.553947 17.23766,-12.085504 17.23766,-12.085504 0,0 -12.48764,7.20878 -1.3903,34.844417 1.9904,4.9567 1.96938,4.06878 7.55362,15.564264 5.58423,11.49548 16.81658,32.49239 16.81658,32.49239 z"
         id="path555"
         sodipodi:nodetypes="czczcszcc" /><path
         style="display:inline;fill:#4a4e69;fill-opacity:1;stroke:#4a4e69;stroke-width:1px;stroke-linecap:butt;stroke-linejoin:miter;stroke-opacity:1;image-rendering:auto"
         d="m 407.4012,282.84148 c 0,0 5.60846,-7.63357 7.23922,-14.01727 1.96934,-7.70904 -0.11189,-26.14449 -0.11189,-26.14449 l -14.0634,-78.47883 c 0,0 -7.09022,-16.52191 -18.22326,-23.48555 -13.06659,-8.17308 -31.39772,-10.09988 -31.39772,-10.09988 l -159.47602,5.92191 -3.85319,1.31937 11.40792,0.22542 c 0,0 8.51483,4.61191 11.85762,7.49252 3.81812,3.29023 9.62511,11.02 9.62511,11.02 0,0 4.80274,8.09219 6.75441,12.23312 2.00047,4.24446 5.10201,12.92304 5.10201,12.92304 0,0 3.09331,12.39923 3.9834,18.64304 0.97472,6.83744 1.61105,20.60069 1.61105,20.60069 0,0 -0.30072,13.93968 -0.8554,20.59586 -0.72829,8.73938 -2.99353,25.59083 -2.99353,25.59083 0,0 -3.57051,17.56371 3.34879,23.51235 8.96186,7.70468 20.86794,6.59321 20.86794,6.59321 z"
         id="path539"
         sodipodi:nodetypes="csccsccccscscscscscc" /><path
         style="display:inline;fill:#22223b;fill-opacity:1;stroke:#22223b;stroke-width:1px;stroke-linecap:butt;stroke-linejoin:miter;stroke-opacity:1"
         d="m 231.77839,326.68327 -5.22735,10.09298 -1.26416,94.01092 c 0,0 0.63008,12.60037 10.81314,20.04671 10.18307,7.44634 38.42804,4.89791 38.42804,4.89791 L 395.48373,440.5277 c 0,0 6.37315,-3.16567 9.15764,-5.32769 2.78449,-2.16202 7.5493,-7.64444 7.5493,-7.64444 z"
         id="path2614"
         sodipodi:nodetypes="ccczcczcc" /><path
         style="display:inline;fill:#4a4e69;fill-opacity:1;stroke:#4a4e69;stroke-width:1px;stroke-linecap:butt;stroke-linejoin:miter;stroke-opacity:1"
         d="m 238.03465,360.32409 c 0,0 -1.4088,23.1439 -1.43426,34.60019 -0.0254,11.45629 1.28153,34.13756 1.28153,34.13756 0,0 0.0345,6.20699 8.32454,12.42656 8.29007,6.21957 16.55382,5.19949 16.55382,5.19949 0,0 33.04677,-1.28334 81.38744,-4.10659 48.34066,-2.82326 68.04295,-15.02573 68.04295,-15.02573 0,0 8.77413,-10.82012 11.74841,-22.45827 2.97428,-11.63815 1.9862,-28.53649 1.9862,-28.53649 z"
         id="path2611"
         sodipodi:nodetypes="czczczczcc" /><path
         style="display:inline;fill:#22223b;fill-opacity:1;stroke:#22223b;stroke-width:1px;stroke-linecap:butt;stroke-linejoin:miter;stroke-opacity:1"
         d="m 235.92154,322.55632 -4.14315,4.12695 c 0,0 1.19958,2.83832 2.75008,11.73739 1.5505,8.89907 6.55292,41.65702 6.55292,41.65702 0,0 1.7675,5.81839 3.4192,7.60073 1.6517,1.78234 6.491,3.09333 6.491,3.09333 l 172.28187,-10.35081 c 0,0 1.29635,-0.9412 1.73832,-1.58455 0.44197,-0.64336 0.9135,-2.27557 0.9135,-2.27557 l -1.42596,-18.56745 z"
         id="path2607"
         sodipodi:nodetypes="cczczcczccc" /><path
         style="display:inline;fill:#4a4e69;fill-opacity:1;stroke:#4a4e69;stroke-width:1px;stroke-linecap:butt;stroke-linejoin:miter;stroke-opacity:1"
         d="m 235.92154,322.55632 c 0,0 5.52378,-4.62806 9.2282,-5.84479 3.70442,-1.21672 12.99832,-1.45556 12.99832,-1.45556 l 141.66845,-9.20353 c 0,0 9.55258,0.0935 15.11735,4.87449 5.56477,4.78103 7.32085,13.6082 7.32085,13.6082 l 2.22542,32.22593 c 0,0 0.21531,9.75177 -0.4772,12.89884 -0.69252,3.14708 -3.67788,5.98359 -3.67788,5.98359 L 249.8388,385.83165 c 0,0 -1.65006,-1.14204 -2.25329,-2.18792 -0.60324,-1.04589 -1.36613,-4.08738 -1.36613,-4.08738 0,0 -5.57943,-34.54996 -7.29573,-44.04997 -1.71631,-9.5 -3.00211,-12.95006 -3.00211,-12.95006 z"
         id="path2604"
         sodipodi:nodetypes="czcczcczcczczc" /><path
         style="display:inline;fill:#f2e9e4;fill-opacity:1;stroke:#f2e9e4;stroke-width:1px;stroke-linecap:butt;stroke-linejoin:miter;stroke-opacity:1"
         d="m 266.71749,361.47522 c 0,0 6.5942,1.07188 6.89828,6.93769 0.30407,5.86581 -6.96598,7.01191 -6.96598,7.01191 0,0 -6.67814,0.23058 -6.48963,-6.97238 0.1885,-7.20296 6.55733,-6.97722 6.55733,-6.97722 z"
         id="path2553"
         sodipodi:nodetypes="czczc" /><path
         style="display:inline;fill:#f2e9e4;fill-opacity:1;stroke:#f2e9e4;stroke-width:1px;stroke-linecap:butt;stroke-linejoin:miter;stroke-opacity:1"
         d="m 404.97287,351.30596 c 0,0 6.5942,1.07188 6.89828,6.93769 0.30407,5.86581 -6.96598,7.01191 -6.96598,7.01191 0,0 -6.67814,0.23058 -6.48963,-6.97238 0.1885,-7.20296 6.55733,-6.97722 6.55733,-6.97722 z"
         id="path2553-6"
         sodipodi:nodetypes="czczc" /><path
         style="display:inline;fill:#22223b;fill-opacity:1;stroke:#22223b;stroke-width:1px;stroke-linecap:butt;stroke-linejoin:miter;stroke-opacity:1"
         d="m 114.52863,392.88931 c 0,0 0.30797,2.77072 0.56023,4.16623 0.25226,1.3955 0.95333,4.20682 0.95333,4.20682 0,0 16.22158,20.06219 37.79881,28.72015 21.57722,8.65797 46.43418,8.63322 46.43418,8.63322 l -1.22413,-27.32126 z"
         id="path2626"
         sodipodi:nodetypes="czczccc" /><path
         style="display:inline;fill:#4a4e69;fill-opacity:1;stroke:#4a4e69;stroke-width:1px;stroke-linecap:butt;stroke-linejoin:miter;stroke-opacity:1"
         d="m 127.17541,312.33779 c 0,0 -4.92091,20.01259 -9.31493,41.16987 -4.39402,21.15728 -3.33185,39.38165 -3.33185,39.38165 0,0 27.89665,23.53746 53.97777,26.76953 26.08112,3.23208 30.54465,-8.36437 30.54465,-8.36437 0,0 -0.64456,-37.79959 0.27831,-51.51268 0.92286,-13.71308 5.25886,-30.76583 5.25886,-30.76583 0,0 -38.50126,-0.75614 -53.88852,-4.7051 -15.38726,-3.94897 -23.52429,-11.97307 -23.52429,-11.97307 z"
         id="path2624"
         sodipodi:nodetypes="czczczczc" /><path
         style="fill:#4a4e69;fill-opacity:1;stroke:#4a4e69;stroke-width:1px;stroke-linecap:butt;stroke-linejoin:miter;stroke-opacity:1"
         d="m 113.55331,405.01594 c 0,0 -15.074537,-1.93593 -21.036047,-11.17886 -5.96151,-9.24293 -2.2335,-21.45911 -2.2335,-21.45911 0,0 13.392057,-29.35413 21.663247,-48.12376 8.2712,-18.76964 12.17694,-49.29417 12.17694,-49.29417 l 0.1028,-66.03424 c 0,0 -7.37963,-27.61039 5.79207,-42.86664 13.1717,-15.25625 31.66274,-13.25951 31.66274,-13.25951 0,0 -25.65415,-9.99486 -43.65879,0.0738 -18.00465,10.06868 -21.630777,36.52967 -21.630777,36.52967 l 0.0906,93.80149 c 0,0 -5.35858,20.12949 -8.96181,38.10711 -3.60323,17.97762 -16.04256,39.4466 -16.04256,39.4466 0,0 -10.00657,21.5374 3.86508,34.51037 13.87165,12.97297 38.210007,9.74723 38.210007,9.74723 z"
         id="path2630"
         sodipodi:nodetypes="czczcczczcczczc" /><path
         style="fill:#9a8c98;fill-opacity:1;fill-rule:nonzero;stroke:#9a8c98;stroke-width:1px;stroke-linecap:butt;stroke-linejoin:miter;stroke-opacity:1"
         d="m 166.04606,154.64234 c 0,0 6.88522,-7.47612 11.10556,-10.49361 4.22035,-3.0175 14.21651,-7.61136 14.21651,-7.61136 0,0 -23.55715,-6.25047 -45.19301,-0.30396 -21.63586,5.9465 -33.46781,20.39711 -33.46781,20.39711 0,0 8.24145,-7.45053 18.79266,-7.92095 21.51612,-0.95929 34.54609,5.93277 34.54609,5.93277 z"
         id="path2632"
         sodipodi:nodetypes="czczcsc" /><path
         style="fill:#9a8c98;fill-opacity:1;stroke:#9a8c98;stroke-width:1px;stroke-linecap:butt;stroke-linejoin:miter;stroke-opacity:1"
         d="m 128.46539,416.57419 -1.81035,-4.37504 -7.07851,-6.95415 -6.02322,-0.22906 c 0,0 -14.222137,3.52093 -32.790777,-5.72352 -18.56865,-9.24446 -10.8479,-34.28018 -10.8479,-34.28018 0,0 -13.63196,28.71825 4.38901,42.21662 18.02097,13.49837 54.161747,9.34533 54.161747,9.34533 z"
         id="path2634"
         sodipodi:nodetypes="cccczczc" /><path
         style="display:inline;fill:#f2e9e4;fill-opacity:1;stroke:#f2e9e4;stroke-width:1px;stroke-linecap:butt;stroke-linejoin:miter;stroke-opacity:1"
         d="m 330.52682,273.38983 c 0,0 -17.46433,-1.38915 -14.66204,-19.68669 2.80229,-18.29753 18.54913,-14.93626 18.54913,-14.93626 21.02598,4.58136 13.96933,36.1871 -3.88709,34.62295 z"
         id="path551-3"
         sodipodi:nodetypes="czcc" /><path
         style="display:inline;fill:#9a8c98;fill-opacity:1;stroke:#9a8c98;stroke-width:1px;stroke-linecap:butt;stroke-linejoin:miter;stroke-opacity:1"
         d="m 330.52682,273.38983 c 0,0 -17.46433,-1.38915 -14.66204,-19.68669 2.80229,-18.29753 18.54913,-14.93626 18.54913,-14.93626 -15.56865,8.31168 -14.83033,19.92936 -3.88709,34.62295 z"
         id="path551"
         sodipodi:nodetypes="czcc" /></g></g></svg>
